<?xml version="1.0" encoding="iso-8859-1"?>
<!-- Uploaded to: SVG Repo, www.svgrepo.com, Generator: SVG Repo Mixer Tools -->
<svg height="800px" width="800px" version="1.1" id="Layer_1" xmlns="http://www.w3.org/2000/svg" xmlns:xlink="http://www.w3.org/1999/xlink" 
	 viewBox="0 0 512 512" xml:space="preserve">
<g transform="translate(1 1)">
	<path style="fill:#FFE100;" d="M485.4,272.067c0,127.147-103.253,230.4-230.4,230.4S24.6,399.213,24.6,272.067
		s103.253-230.4,230.4-230.4S485.4,144.92,485.4,272.067"/>
	<path style="fill:#FFA800;" d="M255,41.667c-5.973,0-11.093,0-17.067,0.853C357.4,51.053,451.267,150.893,451.267,272.067
		S357.4,493.08,237.933,501.613c5.973,0,11.093,0.853,17.067,0.853c127.147,0,230.4-103.253,230.4-230.4S382.147,41.667,255,41.667"
		/>
	<path style="fill:#FFFFFF;" d="M255,41.667c5.973,0,11.093,0,17.067,0.853C152.6,51.053,58.733,150.893,58.733,272.067
		S152.6,493.08,272.067,501.613c-5.973,0-11.093,0.853-17.067,0.853c-127.147,0-230.4-103.253-230.4-230.4
		S127.853,41.667,255,41.667"/>
	<path style="fill:#FFE100;" d="M255,92.867c-21.333,0-204.8-0.853-204.8-42.667S233.667,7.533,255,7.533S459.8,8.387,459.8,50.2
		S276.333,92.867,255,92.867z M67.267,50.2C75.8,59.587,142.36,75.8,255,75.8s179.2-16.213,187.733-25.6
		C434.2,40.813,367.64,24.6,255,24.6S75.8,40.813,67.267,50.2z"/>
	<path d="M255,511C123.587,511,16.067,403.48,16.067,272.067S123.587,33.133,255,33.133s238.933,107.52,238.933,238.933
		S386.413,511,255,511z M255,50.2c-122.027,0-221.867,99.84-221.867,221.867S132.973,493.933,255,493.933
		s221.867-99.84,221.867-221.867S377.027,50.2,255,50.2z"/>
	<path d="M255,84.333c-21.333,0-204.8-0.853-204.8-42.667S233.667-1,255-1s204.8,0.853,204.8,42.667S276.333,84.333,255,84.333z
		 M67.267,41.667c8.533,9.387,75.093,25.6,187.733,25.6s179.2-16.213,187.733-25.6C434.2,32.28,367.64,16.067,255,16.067
		S75.8,32.28,67.267,41.667z"/>
	<path d="M178.2,203.8c-5.12,0-8.533-3.413-8.533-8.533c0-14.507-11.093-25.6-25.6-25.6s-25.6,11.093-25.6,25.6
		c0,5.12-3.413,8.533-8.533,8.533s-8.533-3.413-8.533-8.533c0-23.893,18.773-42.667,42.667-42.667s42.667,18.773,42.667,42.667
		C186.733,200.387,183.32,203.8,178.2,203.8z"/>
	<path d="M383,203.8c-5.12,0-8.533-3.413-8.533-8.533c0-14.507-11.093-25.6-25.6-25.6c-14.507,0-25.6,11.093-25.6,25.6
		c0,5.12-3.413,8.533-8.533,8.533s-8.533-3.413-8.533-8.533c0-23.893,18.773-42.667,42.667-42.667
		c23.893,0,42.667,18.773,42.667,42.667C391.533,200.387,388.12,203.8,383,203.8z"/>
	<path d="M246.467,400.067c-52.907,0-104.96-27.307-134.827-71.68c-2.56-4.267-1.707-9.387,2.56-11.947s9.387-1.707,11.947,2.56
		c26.453,39.253,72.533,64,120.32,64s93.867-24.747,121.173-64.853c2.56-4.267,7.68-5.12,11.947-2.56s5.12,7.68,2.56,11.947
		C351.427,372.76,299.373,400.067,246.467,400.067z"/>
</g>
</svg>