<?xml version="1.0" encoding="iso-8859-1"?>
<!-- Uploaded to: SVG Repo, www.svgrepo.com, Generator: SVG Repo Mixer Tools -->
<svg height="800px" width="800px" version="1.1" id="Layer_1" xmlns="http://www.w3.org/2000/svg" xmlns:xlink="http://www.w3.org/1999/xlink" 
	 viewBox="0 0 512 512" xml:space="preserve">
<g transform="translate(1 1)">
	<path style="fill:#FFE100;" d="M502.467,255c0,136.533-110.933,247.467-247.467,247.467S7.533,391.533,7.533,255
		S118.467,7.533,255,7.533S502.467,118.467,502.467,255"/>
	<path style="fill:#FFA800;" d="M255,7.533c-4.267,0-8.533,0-12.8,0C372.76,14.36,476.867,122.733,476.867,255
		S372.76,495.64,242.2,502.467c4.267,0,8.533,0,12.8,0c136.533,0,247.467-110.933,247.467-247.467S391.533,7.533,255,7.533"/>
	<path style="fill:#FFFFFF;" d="M255,7.533c4.267,0,8.533,0,12.8,0C137.24,14.36,33.133,122.733,33.133,255
		S137.24,495.64,267.8,502.467c-4.267,0-8.533,0-12.8,0C118.467,502.467,7.533,391.533,7.533,255S118.467,7.533,255,7.533"/>
	<path style="fill:#63D3FD;" d="M383,272.067h-68.267H195.267H127c-23.893,0-42.667,18.773-42.667,42.667
		c0,23.893,18.773,42.667,42.667,42.667h68.267h119.467H383c23.893,0,42.667-18.773,42.667-42.667S406.893,272.067,383,272.067"/>
	<path style="fill:#3DB9F9;" d="M383,272.067h-25.6c23.893,0,42.667,18.773,42.667,42.667c0,23.893-18.773,42.667-42.667,42.667H383
		c23.893,0,42.667-18.773,42.667-42.667S406.893,272.067,383,272.067"/>
	<path d="M255,511C114.2,511-1,395.8-1,255S114.2-1,255-1s256,115.2,256,256S395.8,511,255,511z M255,16.067
		C123.587,16.067,16.067,123.587,16.067,255S123.587,493.933,255,493.933S493.933,386.413,493.933,255S386.413,16.067,255,16.067z"
		/>
	<path d="M186.733,186.733c-5.12,0-8.533-3.413-8.533-8.533c0-14.507-11.093-25.6-25.6-25.6S127,163.693,127,178.2
		c0,5.12-3.413,8.533-8.533,8.533s-8.533-3.413-8.533-8.533c0-23.893,18.773-42.667,42.667-42.667s42.667,18.773,42.667,42.667
		C195.267,183.32,191.853,186.733,186.733,186.733z"/>
	<path d="M127,121.88c-1.707,0-4.267-0.853-5.973-2.56c-3.413-3.413-4.267-8.533-0.853-11.947
		c7.68-9.387,19.627-14.507,32.427-14.507c11.947,0,23.893,5.12,32.427,14.507c3.413,3.413,2.56,8.533-0.853,11.947
		s-8.533,2.56-11.947-0.853c-5.12-5.12-11.947-8.533-19.627-8.533s-14.507,3.413-19.627,8.533
		C132.12,120.173,129.56,121.88,127,121.88z"/>
	<path d="M331.8,121.88c-1.707,0-4.267-0.853-5.973-2.56c-3.413-3.413-4.267-8.533-0.853-11.947
		c7.68-9.387,19.627-14.507,32.427-14.507c11.947,0,23.893,5.12,32.427,14.507c3.413,3.413,2.56,8.533-0.853,11.947
		s-8.533,2.56-11.947-0.853c-5.12-5.12-11.947-8.533-19.627-8.533c-7.68,0-14.507,3.413-19.627,8.533
		C336.92,120.173,334.36,121.88,331.8,121.88z"/>
	<path d="M391.533,186.733c-5.12,0-8.533-3.413-8.533-8.533c0-14.507-11.093-25.6-25.6-25.6s-25.6,11.093-25.6,25.6
		c0,5.12-3.413,8.533-8.533,8.533s-8.533-3.413-8.533-8.533c0-23.893,18.773-42.667,42.667-42.667
		c23.893,0,42.667,18.773,42.667,42.667C400.067,183.32,396.653,186.733,391.533,186.733z"/>
	<path d="M314.733,323.267H195.267c-5.12,0-8.533-3.413-8.533-8.533v-42.667c0-5.12,3.413-8.533,8.533-8.533h119.467
		c5.12,0,8.533,3.413,8.533,8.533v42.667C323.267,319.853,319.853,323.267,314.733,323.267z M203.8,306.2h102.4v-25.6H203.8V306.2z"
		/>
	<path d="M425.667,323.267H314.733c-5.12,0-8.533-3.413-8.533-8.533v-42.667c0-5.12,3.413-8.533,8.533-8.533H383
		c28.16,0,51.2,23.04,51.2,51.2C434.2,319.853,430.787,323.267,425.667,323.267z M323.267,306.2h93.013
		c-3.413-14.507-17.067-25.6-33.28-25.6h-59.733V306.2z"/>
	<path d="M195.267,323.267H84.333c-5.12,0-8.533-3.413-8.533-8.533c0-28.16,23.04-51.2,51.2-51.2h68.267
		c5.12,0,8.533,3.413,8.533,8.533v42.667C203.8,319.853,200.387,323.267,195.267,323.267z M93.72,306.2h93.013v-25.6H127
		C110.787,280.6,97.987,291.693,93.72,306.2z"/>
	<path d="M144.067,323.267c-5.12,0-8.533-3.413-8.533-8.533v-42.667c0-5.12,3.413-8.533,8.533-8.533c5.12,0,8.533,3.413,8.533,8.533
		v42.667C152.6,319.853,149.187,323.267,144.067,323.267z"/>
	<path d="M255,323.267c-5.12,0-8.533-3.413-8.533-8.533v-42.667c0-5.12,3.413-8.533,8.533-8.533c5.12,0,8.533,3.413,8.533,8.533
		v42.667C263.533,319.853,260.12,323.267,255,323.267z"/>
	<path d="M365.933,323.267c-5.12,0-8.533-3.413-8.533-8.533v-42.667c0-5.12,3.413-8.533,8.533-8.533s8.533,3.413,8.533,8.533v42.667
		C374.467,319.853,371.053,323.267,365.933,323.267z"/>
	<path d="M314.733,365.933H195.267c-5.12,0-8.533-3.413-8.533-8.533v-42.667c0-5.12,3.413-8.533,8.533-8.533h119.467
		c5.12,0,8.533,3.413,8.533,8.533V357.4C323.267,362.52,319.853,365.933,314.733,365.933z M203.8,348.867h102.4v-25.6H203.8V348.867
		z"/>
	<path d="M195.267,365.933H127c-28.16,0-51.2-23.04-51.2-51.2c0-5.12,3.413-8.533,8.533-8.533h110.933
		c5.12,0,8.533,3.413,8.533,8.533V357.4C203.8,362.52,200.387,365.933,195.267,365.933z M93.72,323.267
		c3.413,14.507,17.067,25.6,33.28,25.6h59.733v-25.6H93.72z"/>
	<path d="M383,365.933h-68.267c-5.12,0-8.533-3.413-8.533-8.533v-42.667c0-5.12,3.413-8.533,8.533-8.533h110.933
		c5.12,0,8.533,3.413,8.533,8.533C434.2,342.893,411.16,365.933,383,365.933z M323.267,348.867H383
		c16.213,0,29.013-11.093,33.28-25.6h-93.013V348.867z"/>
	<path d="M365.933,365.933c-5.12,0-8.533-3.413-8.533-8.533v-42.667c0-5.12,3.413-8.533,8.533-8.533s8.533,3.413,8.533,8.533V357.4
		C374.467,362.52,371.053,365.933,365.933,365.933z"/>
	<path d="M255,365.933c-5.12,0-8.533-3.413-8.533-8.533v-42.667c0-5.12,3.413-8.533,8.533-8.533c5.12,0,8.533,3.413,8.533,8.533
		V357.4C263.533,362.52,260.12,365.933,255,365.933z"/>
	<path d="M144.067,365.933c-5.12,0-8.533-3.413-8.533-8.533v-42.667c0-5.12,3.413-8.533,8.533-8.533c5.12,0,8.533,3.413,8.533,8.533
		V357.4C152.6,362.52,149.187,365.933,144.067,365.933z"/>
	<path d="M195.267,323.267H84.333c-5.12,0-8.533-3.413-8.533-8.533c0-28.16,23.04-51.2,51.2-51.2h68.267
		c5.12,0,8.533,3.413,8.533,8.533v42.667C203.8,319.853,200.387,323.267,195.267,323.267z M93.72,306.2h93.013v-25.6H127
		C110.787,280.6,97.987,291.693,93.72,306.2z"/>
</g>
</svg>