<?xml version="1.0" encoding="iso-8859-1"?>
<!-- Uploaded to: SVG Repo, www.svgrepo.com, Generator: SVG Repo Mixer Tools -->
<svg height="800px" width="800px" version="1.1" id="Layer_1" xmlns="http://www.w3.org/2000/svg" xmlns:xlink="http://www.w3.org/1999/xlink" 
	 viewBox="0 0 512 512" xml:space="preserve">
<g transform="translate(1 1)">
	<path style="fill:#FFE100;" d="M502.467,255c0,136.533-110.933,247.467-247.467,247.467S7.533,391.533,7.533,255
		S118.467,7.533,255,7.533S502.467,118.467,502.467,255"/>
	<path style="fill:#FFA800;" d="M255,7.533c-4.267,0-8.533,0-12.8,0C372.76,14.36,476.867,122.733,476.867,255
		S372.76,495.64,242.2,502.467c4.267,0,8.533,0,12.8,0c136.533,0,247.467-110.933,247.467-247.467S391.533,7.533,255,7.533"/>
	<path style="fill:#FFFFFF;" d="M255,7.533c4.267,0,8.533,0,12.8,0C137.24,14.36,33.133,122.733,33.133,255
		S137.24,495.64,267.8,502.467c-4.267,0-8.533,0-12.8,0C118.467,502.467,7.533,391.533,7.533,255S118.467,7.533,255,7.533"/>
	<g>
		<path style="fill:#63D3FD;" d="M323.267,275.48C303.64,262.68,279.747,255,255,255s-48.64,7.68-68.267,19.627v90.453
			c53.76-10.24,101.547-5.973,136.533,0.853V275.48H323.267z"/>
		<path style="fill:#63D3FD;" d="M135.533,177.347v294.4c16.213,8.533,33.28,16.213,51.2,21.333V177.347
			c-7.68-4.267-16.213-7.68-25.6-7.68S143.213,172.227,135.533,177.347"/>
	</g>
	<g>
		<path style="fill:#3DB9F9;" d="M161.133,169.667c-4.267,0-8.533,0.853-12.8,1.707c4.267,0.853,8.533,3.413,12.8,5.973v307.2
			c8.533,3.413,17.067,5.973,25.6,8.533V177.347C179.053,172.227,170.52,169.667,161.133,169.667"/>
		<path style="fill:#3DB9F9;" d="M374.467,177.347v294.4c-16.213,8.533-33.28,16.213-51.2,21.333V177.347
			c7.68-4.267,16.213-7.68,25.6-7.68C358.253,169.667,366.787,172.227,374.467,177.347"/>
	</g>
	<path style="fill:#63D3FD;" d="M348.867,169.667c4.267,0,8.533,0.853,12.8,1.707c-4.267,0.853-8.533,3.413-12.8,5.973v307.2
		c-8.533,3.413-17.067,5.973-25.6,8.533V177.347C330.947,172.227,339.48,169.667,348.867,169.667"/>
	<path d="M383,152.6c-23.893,0-42.667-18.773-42.667-42.667c0-5.12,3.413-8.533,8.533-8.533s8.533,3.413,8.533,8.533
		c0,14.507,11.093,25.6,25.6,25.6c5.12,0,8.533,3.413,8.533,8.533C391.533,149.187,388.12,152.6,383,152.6z"/>
	<path d="M127,152.6c-5.12,0-8.533-3.413-8.533-8.533c0-5.12,3.413-8.533,8.533-8.533c14.507,0,25.6-11.093,25.6-25.6
		c0-5.12,3.413-8.533,8.533-8.533c5.12,0,8.533,3.413,8.533,8.533C169.667,133.827,150.893,152.6,127,152.6z"/>
	<path d="M255,511C114.2,511-1,395.8-1,255S114.2-1,255-1s256,115.2,256,256S395.8,511,255,511z M255,16.067
		C123.587,16.067,16.067,123.587,16.067,255S123.587,493.933,255,493.933S493.933,386.413,493.933,255S386.413,16.067,255,16.067z"
		/>
	<path d="M118.467,203.8c-1.707,0-2.56,0-4.267-0.853c-4.267-2.56-5.12-7.68-3.413-11.947
		c11.093-18.773,29.013-29.867,50.347-29.867c20.48,0,39.253,11.093,50.347,29.867c2.56,4.267,0.853,9.387-3.413,11.947
		s-9.387,0.853-11.947-3.413c-7.68-13.653-20.48-21.333-34.987-21.333s-27.307,7.68-34.987,21.333
		C124.44,202.093,121.027,203.8,118.467,203.8z"/>
	<path d="M306.2,203.8c-1.707,0-2.56,0-4.267-0.853c-4.267-2.56-5.12-7.68-3.413-11.947c11.093-18.773,29.013-29.867,50.347-29.867
		c20.48,0,39.253,11.093,50.347,29.867c2.56,4.267,0.853,9.387-3.413,11.947s-9.387,0.853-11.947-3.413
		c-7.68-13.653-20.48-21.333-34.987-21.333s-27.307,7.68-34.987,21.333C312.173,202.093,308.76,203.8,306.2,203.8z"/>
	<path d="M323.267,373.613c-0.853,0-0.853,0-1.707,0c-44.373-8.533-90.453-8.533-133.12-0.853c-2.56,0.853-5.12,0-6.827-1.707
		s-3.413-4.267-3.413-6.827v-89.6c0-2.56,1.707-5.973,4.267-6.827C203.8,254.147,229.4,246.467,255,246.467s51.2,7.68,73.387,21.333
		c2.56,1.707,4.267,4.267,4.267,6.827v90.453c0,2.56-0.853,5.12-3.413,6.827C327.533,373.613,324.973,373.613,323.267,373.613z
		 M253.293,350.573c20.48,0,40.96,1.707,61.44,5.12V280.6c-35.84-21.333-82.773-21.333-119.467,0v75.093
		C214.04,351.427,233.667,350.573,253.293,350.573z"/>
	<path d="M323.267,501.613c-1.707,0-3.413-0.853-5.12-1.707c-2.56-1.707-3.413-4.267-3.413-6.827V177.347
		c0-2.56,1.707-5.973,4.267-6.827c17.92-11.947,42.667-11.947,60.587,0c2.56,1.707,4.267,4.267,4.267,6.827v294.4
		c0,3.413-1.707,5.973-4.267,7.68c-17.067,9.387-34.133,16.213-52.907,22.187C324.973,501.613,324.12,501.613,323.267,501.613z
		 M331.8,182.467v299.52c11.947-4.267,23.04-8.533,34.133-14.507V182.467C355.693,177.347,342.04,177.347,331.8,182.467z"/>
	<path d="M186.733,501.613c-0.853,0-1.707,0-2.56,0c-18.773-5.12-36.693-12.8-52.907-22.187c-2.56-1.707-4.267-4.267-4.267-7.68
		v-294.4c0-2.56,1.707-5.973,4.267-6.827c17.92-11.947,42.667-11.947,60.587,0c2.56,1.707,4.267,4.267,4.267,6.827V493.08
		c0,2.56-0.853,5.12-3.413,6.827C190.147,500.76,188.44,501.613,186.733,501.613z M144.067,466.627
		c11.093,5.973,22.187,10.24,34.133,14.507V182.467c-10.24-5.12-23.893-5.12-34.133,0V466.627z"/>
</g>
</svg>