<?xml version="1.0" encoding="iso-8859-1"?>
<!-- Uploaded to: SVG Repo, www.svgrepo.com, Generator: SVG Repo Mixer Tools -->
<svg height="800px" width="800px" version="1.1" id="Layer_1" xmlns="http://www.w3.org/2000/svg" xmlns:xlink="http://www.w3.org/1999/xlink" 
	 viewBox="0 0 512.002 512.002" xml:space="preserve">
<g transform="translate(1 1)">
	<path style="fill:#FFE100;" d="M502.467,255.001c0,136.67-110.797,247.467-247.467,247.467S7.533,391.671,7.533,255.001
		S118.33,7.534,255,7.534S502.467,118.331,502.467,255.001"/>
	<path style="fill:#FFA800;" d="M255,7.534c-4.292,0-8.559,0.111-12.8,0.324c130.722,6.665,234.667,114.765,234.667,247.142
		S372.922,495.479,242.2,502.143c4.241,0.213,8.508,0.324,12.8,0.324c136.67,0,247.467-110.797,247.467-247.467
		S391.67,7.534,255,7.534"/>
	<path style="fill:#FFFFFF;" d="M255,7.534c4.292,0,8.559,0.111,12.8,0.324C137.078,14.523,33.133,122.623,33.133,255.001
		S137.078,495.479,267.8,502.143c-4.241,0.213-8.508,0.324-12.8,0.324c-136.67,0-247.467-110.797-247.467-247.467
		S118.33,7.534,255,7.534"/>
	<g>
		<path style="fill:#63D3FD;" d="M163.335,368.614c-23.868,5.888-43.665-17.911-33.792-40.422
			c21.111-48.111,69.18-81.724,125.09-81.724c56.909,0,105.694,34.833,126.191,84.335c8.883,21.436-10.88,43.87-33.434,38.391
			C305.765,359.099,238.471,350.071,163.335,368.614"/>
		<path style="fill:#63D3FD;" d="M178.2,365.294v68.096c0,9.429,7.646,17.067,17.067,17.067s17.067-7.637,17.067-17.067v-17.067
			c0,9.429,7.646,17.067,17.067,17.067c9.421,0,17.067-7.637,17.067-17.067v-58.359C225.048,358.314,202.11,360.456,178.2,365.294"
			/>
	</g>
	<path style="fill:#3DB9F9;" d="M380.824,330.802c-20.497-49.502-69.282-84.335-126.199-84.335c-4.309,0-8.55,0.273-12.766,0.657
		c51.354,4.779,94.473,37.931,113.417,83.678c6.289,15.189-1.818,30.822-15.078,36.727c2.466,0.555,4.881,1.109,7.194,1.673
		C369.944,374.672,389.699,352.238,380.824,330.802"/>
	<path d="M255,511.001c-141.158,0-256-114.842-256-256s114.842-256,256-256s256,114.842,256,256S396.158,511.001,255,511.001z
		 M255,16.067c-131.746,0-238.933,107.187-238.933,238.933S123.254,493.934,255,493.934s238.933-107.179,238.933-238.933
		S386.746,16.067,255,16.067z"/>
	<path d="M357.4,186.734c-23.526,0-42.667-19.14-42.667-42.667c0-4.71,3.814-8.533,8.533-8.533c4.719,0,8.533,3.823,8.533,8.533
		c0,14.114,11.486,25.6,25.6,25.6s25.6-11.486,25.6-25.6c0-4.71,3.814-8.533,8.533-8.533s8.533,3.823,8.533,8.533
		C400.067,167.594,380.926,186.734,357.4,186.734z"/>
	<path d="M152.6,186.734c-23.526,0-42.667-19.14-42.667-42.667c0-4.71,3.823-8.533,8.533-8.533c4.71,0,8.533,3.823,8.533,8.533
		c0,14.114,11.486,25.6,25.6,25.6s25.6-11.486,25.6-25.6c0-4.71,3.823-8.533,8.533-8.533c4.71,0,8.533,3.823,8.533,8.533
		C195.267,167.594,176.126,186.734,152.6,186.734z"/>
	<path d="M354.217,378.555c-2.935,0-5.897-0.35-8.841-1.067c-41.95-10.18-107.238-18.534-179.994-0.589
		c-14.174,3.507-28.732-1.203-38.042-12.254c-9.37-11.128-11.52-26.411-5.615-39.876c23.142-52.753,75.315-86.835,132.907-86.835
		c58.906,0,111.531,35.174,134.076,89.6c5.291,12.766,2.944,27.273-6.127,37.871C375.337,373.879,364.978,378.546,354.217,378.555z
		 M252.918,349.32c38.127,0,71.33,5.478,96.478,11.58c7.578,1.826,15.113-0.631,20.215-6.596c4.941-5.769,6.187-13.338,3.328-20.233
		c-19.891-48.034-66.33-79.07-118.306-79.07c-50.825,0-96.853,30.08-117.282,76.621c-3.328,7.586-2.185,15.821,3.038,22.033
		c5.154,6.135,12.988,8.61,20.89,6.673l0,0C193.688,352.323,224.655,349.32,252.918,349.32z"/>
	<path d="M195.267,458.982c-14.114,0-25.6-11.486-25.6-25.6v-68.087c0-4.062,2.859-7.561,6.844-8.363
		c22.673-4.591,46.165-7.108,69.82-7.501c2.27,0.06,4.489,0.845,6.118,2.449c1.638,1.604,2.551,3.797,2.551,6.084v58.359
		c0,14.114-11.486,25.6-25.6,25.6c-3.328,0-6.511-0.64-9.429-1.801C217.001,450.977,207.051,458.982,195.267,458.982z
		 M186.733,372.343v61.039c0,4.71,3.831,8.533,8.533,8.533s8.533-3.823,8.533-8.533v-17.067c0-4.719,3.823-8.533,8.533-8.533
		s8.533,3.814,8.533,8.533c0,4.71,3.831,8.533,8.533,8.533s8.533-3.823,8.533-8.533v-49.587
		C220.628,367.419,203.459,369.296,186.733,372.343z"/>
	<path d="M391.533,127.001H357.4c-3.285,0-6.263-1.877-7.689-4.838c-1.417-2.953-1.024-6.468,1.024-9.028l23.04-28.8H357.4
		c-4.719,0-8.533-3.823-8.533-8.533c0-4.71,3.814-8.533,8.533-8.533h34.133c3.285,0,6.263,1.877,7.689,4.838
		c1.417,2.953,1.024,6.468-1.024,9.028l-23.04,28.8h16.375c4.719,0,8.533,3.823,8.533,8.533
		C400.067,123.178,396.252,127.001,391.533,127.001z"/>
	<path d="M502.467,67.267h-51.2c-3.447,0-6.571-2.082-7.885-5.265c-1.323-3.191-0.589-6.861,1.852-9.301l36.634-36.634h-30.601
		c-4.719,0-8.533-3.823-8.533-8.533s3.814-8.533,8.533-8.533h51.2c3.447,0,6.571,2.082,7.885,5.265
		c1.323,3.191,0.589,6.861-1.852,9.301l-36.634,36.634h30.601c4.719,0,8.533,3.823,8.533,8.533S507.186,67.267,502.467,67.267z"/>
</g>
</svg>